# WaveFront *.obj file (generated by Autodesk ATF)

mtllib left_choc_plate.mtl

g chocplate

v 919.802182 -1388.263100 -1.200000
v 923.425648 -1374.740139 -1.200000
v 923.425648 -1374.740139 -2.800000
v 919.802182 -1388.263100 -2.800000
v 906.279220 -1384.639634 -1.200000
v 906.279220 -1384.639634 -2.800000
v 909.902687 -1371.116672 -1.200000
v 909.902687 -1371.116672 -2.800000
v 881.847797 -1383.931156 -1.200000
v 881.847797 -1369.931156 -1.200000
v 881.847797 -1369.931156 -2.800000
v 881.847797 -1383.931156 -2.800000
v 867.847797 -1383.931156 -1.200000
v 867.847797 -1383.931156 -2.800000
v 867.847797 -1369.931156 -1.200000
v 867.847797 -1369.931156 -2.800000
v 924.816870 -1390.340252 -1.200000
v 936.941225 -1397.340252 -1.200000
v 936.941225 -1397.340252 -2.800000
v 924.816870 -1390.340252 -2.800000
v 931.816870 -1378.215896 -1.200000
v 931.816870 -1378.215896 -2.800000
v 943.941225 -1385.215896 -1.200000
v 943.941225 -1385.215896 -2.800000
v 900.897797 -1369.931156 -1.200000
v 886.897797 -1369.931156 -1.200000
v 886.897797 -1369.931156 -2.800000
v 900.897797 -1369.931156 -2.800000
v 900.897797 -1383.931156 -1.200000
v 900.897797 -1383.931156 -2.800000
v 886.897797 -1383.931156 -1.200000
v 886.897797 -1383.931156 -2.800000
v 905.810703 -1367.406156 -1.200000
v 928.955947 -1373.607905 -1.200000
v 928.955947 -1373.607905 -2.800000
v 905.810703 -1367.406156 -2.800000
v 865.322797 -1367.406156 -1.200000
v 865.322797 -1367.406156 -2.800000
v 865.322797 -1386.506391 -1.200000
v 865.322797 -1386.506391 -2.800000
v 903.091532 -1386.503306 -1.200000
v 903.091532 -1386.503306 -2.800000
v 921.387903 -1391.407284 -1.200000
v 921.387903 -1391.407284 -2.800000
v 936.109275 -1399.908157 -1.200000
v 936.109275 -1399.908157 -2.800000
v 938.841381 -1399.176313 -1.200000
v 938.575406 -1399.536638 -1.200000
v 938.235921 -1399.828745 -1.200000
v 937.839947 -1400.037985 -1.200000
v 937.407341 -1400.153866 -1.200000
v 936.959795 -1400.170578 -1.200000
v 936.519751 -1400.087283 -1.200000
v 936.519751 -1400.087283 -2.800000
v 936.959795 -1400.170578 -2.800000
v 937.407341 -1400.153866 -2.800000
v 937.839947 -1400.037985 -2.800000
v 938.235921 -1399.828745 -2.800000
v 938.575406 -1399.536638 -2.800000
v 938.841381 -1399.176313 -2.800000
v 946.441656 -1386.014548 -1.200000
v 946.441656 -1386.014548 -2.800000
v 945.709811 -1383.282442 -1.200000
v 946.070137 -1383.548417 -1.200000
v 946.362243 -1383.887902 -1.200000
v 946.571483 -1384.283876 -1.200000
v 946.687365 -1384.716482 -1.200000
v 946.704077 -1385.164028 -1.200000
v 946.620782 -1385.604072 -1.200000
v 946.620782 -1385.604072 -2.800000
v 946.704077 -1385.164028 -2.800000
v 946.687365 -1384.716482 -2.800000
v 946.571483 -1384.283876 -2.800000
v 946.362243 -1383.887902 -2.800000
v 946.070137 -1383.548417 -2.800000
v 945.709811 -1383.282442 -2.800000
vt 0.000000 0.000000 0.000000
vt 1.400000 0.000000 0.000000
vt 0.000000 0.160000 0.000000
vt 1.400000 0.160000 0.000000
vt 0.000000 0.000000 0.000000
vt 1.400000 0.000000 0.000000
vt 0.000000 0.160000 0.000000
vt 1.400000 0.160000 0.000000
vt 0.000000 0.000000 0.000000
vt 1.400000 0.000000 0.000000
vt -0.000000 0.160000 0.000000
vt 1.400000 0.160000 0.000000
vt 0.000000 0.000000 0.000000
vt 1.400000 0.000000 0.000000
vt 0.000000 0.160000 0.000000
vt 1.400000 0.160000 0.000000
vt 0.000000 0.000000 0.000000
vt 1.400000 0.000000 0.000000
vt 0.000000 0.160000 0.000000
vt 1.400000 0.160000 0.000000
vt 0.000000 0.000000 0.000000
vt 1.400000 0.000000 0.000000
vt 0.000000 0.160000 0.000000
vt 1.400000 0.160000 0.000000
vt 0.000000 0.000000 0.000000
vt 1.400000 0.000000 0.000000
vt 0.000000 0.160000 0.000000
vt 1.400000 0.160000 0.000000
vt -0.000000 0.000000 0.000000
vt 1.400000 0.000000 0.000000
vt 0.000000 0.160000 0.000000
vt 1.400000 0.160000 0.000000
vt 0.000000 0.000000 0.000000
vt 1.400000 0.000000 0.000000
vt 0.000000 0.160000 0.000000
vt 1.400000 0.160000 0.000000
vt 0.000000 0.000000 0.000000
vt 1.400000 0.000000 0.000000
vt -0.000000 0.160000 0.000000
vt 1.400000 0.160000 0.000000
vt 0.000000 0.000000 0.000000
vt 1.400000 0.000000 0.000000
vt 0.000000 0.160000 0.000000
vt 1.400000 0.160000 0.000000
vt 0.000000 0.000000 0.000000
vt 1.400000 0.000000 0.000000
vt 0.000000 0.160000 0.000000
vt 1.400000 0.160000 0.000000
vt -0.000000 0.000000 0.000000
vt 1.400000 0.000000 0.000000
vt 0.000000 0.160000 0.000000
vt 1.400000 0.160000 0.000000
vt 0.000000 0.000000 0.000000
vt 1.400000 0.000000 0.000000
vt 0.000000 0.160000 0.000000
vt 1.400000 0.160000 0.000000
vt 0.000000 0.000000 0.000000
vt 1.400000 0.000000 0.000000
vt 0.000000 0.160000 0.000000
vt 1.400000 0.160000 0.000000
vt 0.000000 0.000000 0.000000
vt 1.400000 0.000000 0.000000
vt 0.000000 0.160000 0.000000
vt 1.400000 0.160000 0.000000
vt -0.000000 0.000000 0.000000
vt 2.396172 0.000000 0.000000
vt -0.000000 0.160000 0.000000
vt 2.396172 0.160000 0.000000
vt 0.000000 0.000000 0.000000
vt 4.048791 0.000000 0.000000
vt 0.000000 0.160000 0.000000
vt 4.048791 0.160000 0.000000
vt 0.000000 0.000000 0.000000
vt 1.910023 0.000000 0.000000
vt 0.000000 0.160000 0.000000
vt 1.910023 0.160000 0.000000
vt 0.000000 0.000000 0.000000
vt 3.776873 0.000000 0.000000
vt -0.000000 0.160000 0.000000
vt 3.776873 0.160000 0.000000
vt 0.000000 0.000000 0.000000
vt 1.894218 0.000000 0.000000
vt 0.000000 0.160000 0.000000
vt 1.894218 0.160000 0.000000
vt 0.000000 0.000000 0.000000
vt 1.699952 0.000000 0.000000
vt 0.000000 0.160000 0.000000
vt 1.699952 0.160000 0.000000
vt -0.160000 -0.314159 0.000000
vt -0.000000 -0.314159 0.000000
vt -0.160000 -0.269279 0.000000
vt -0.000000 -0.269279 0.000000
vt -0.160000 -0.224399 0.000000
vt -0.000000 -0.224399 0.000000
vt -0.160000 -0.179520 0.000000
vt -0.000000 -0.179520 0.000000
vt -0.160000 -0.134640 0.000000
vt -0.000000 -0.134640 0.000000
vt -0.160000 -0.089760 0.000000
vt 0.000000 -0.089760 0.000000
vt -0.160000 -0.044880 0.000000
vt 0.000000 -0.044880 0.000000
vt -0.160000 0.000000 0.000000
vt -0.000000 0.000000 0.000000
vt -0.000000 0.000000 0.000000
vt 1.519856 -0.000000 0.000000
vt 0.000000 0.160000 0.000000
vt 1.519856 0.160000 0.000000
vt -0.160000 -0.314159 0.000000
vt -0.000000 -0.314159 0.000000
vt -0.160000 -0.269279 0.000000
vt -0.000000 -0.269279 0.000000
vt -0.160000 -0.224399 0.000000
vt -0.000000 -0.224399 0.000000
vt -0.160000 -0.179520 0.000000
vt -0.000000 -0.179520 0.000000
vt -0.160000 -0.134640 0.000000
vt -0.000000 -0.134640 0.000000
vt -0.160000 -0.089760 0.000000
vt -0.000000 -0.089760 0.000000
vt -0.160000 -0.044880 0.000000
vt -0.000000 -0.044880 0.000000
vt -0.160000 -0.000000 0.000000
vt -0.000000 -0.000000 0.000000
vt 0.000000 0.000000 0.000000
vt 1.934654 0.000000 0.000000
vt 0.000000 0.160000 0.000000
vt 1.934654 0.160000 0.000000
vt 5.158227 -3.271420 0.000000
vt 5.444319 -3.732219 0.000000
vt 6.833613 -4.238874 0.000000
vt 6.656755 -4.432219 0.000000
vt 6.869646 -4.265471 0.000000
vt 6.898856 -4.299420 0.000000
vt 6.919780 -4.339017 0.000000
vt 6.931369 -4.382278 0.000000
vt 6.933040 -4.427032 0.000000
vt 6.924710 -4.471037 0.000000
vt 6.906798 -4.512084 0.000000
vt 5.956755 -5.644655 0.000000
vt 6.146770 -5.828261 0.000000
vt 5.873560 -5.901445 0.000000
vt 6.120173 -5.864293 0.000000
vt 6.086224 -5.893504 0.000000
vt 6.046627 -5.914428 0.000000
vt 5.914607 -5.919358 0.000000
vt 6.003366 -5.926016 0.000000
vt 5.958612 -5.927687 0.000000
vt 2.843702 -2.651245 0.000000
vt 3.252901 -3.022297 0.000000
vt 4.605197 -3.384643 0.000000
vt 4.242850 -4.736940 0.000000
vt 4.744319 -4.944655 0.000000
vt 4.401422 -5.051358 0.000000
vt -1.205088 -2.651245 0.000000
vt 0.952412 -2.903745 0.000000
vt 2.352412 -2.903745 0.000000
vt 2.352412 -4.303745 0.000000
vt 2.890554 -4.374593 0.000000
vt 2.571785 -4.560960 0.000000
vt -1.205088 -4.561269 0.000000
vt -0.952588 -4.303745 0.000000
vt -0.952588 -2.903745 0.000000
vt 0.447412 -2.903745 0.000000
vt 0.447412 -4.303745 0.000000
vt 0.952412 -4.303745 0.000000
vt -6.833613 -4.238874 0.000000
vt -5.444319 -3.732219 0.000000
vt -5.158227 -3.271420 0.000000
vt -4.605197 -3.384643 0.000000
vt -3.252901 -3.022297 0.000000
vt -6.656755 -4.432219 0.000000
vt -6.869646 -4.265471 0.000000
vt -6.898856 -4.299420 0.000000
vt -6.919780 -4.339017 0.000000
vt -6.931369 -4.382278 0.000000
vt -6.933040 -4.427032 0.000000
vt -6.924710 -4.471037 0.000000
vt -6.906798 -4.512084 0.000000
vt -5.956755 -5.644655 0.000000
vt -6.146770 -5.828261 0.000000
vt -5.873560 -5.901445 0.000000
vt -6.120173 -5.864293 0.000000
vt -6.086224 -5.893504 0.000000
vt -6.046627 -5.914428 0.000000
vt -5.914607 -5.919358 0.000000
vt -6.003366 -5.926016 0.000000
vt -5.958612 -5.927687 0.000000
vt -4.401422 -5.051358 0.000000
vt -4.744319 -4.944655 0.000000
vt -4.242850 -4.736940 0.000000
vt -2.571785 -4.560960 0.000000
vt -2.890554 -4.374593 0.000000
vt -2.352412 -4.303745 0.000000
vt -2.352412 -2.903745 0.000000
vt -2.843702 -2.651245 0.000000
vt -0.952412 -2.903745 0.000000
vt 1.205088 -2.651245 0.000000
vt -0.447412 -2.903745 0.000000
vt 0.952588 -2.903745 0.000000
vt 1.205088 -4.561269 0.000000
vt -0.447412 -4.303745 0.000000
vt -0.952412 -4.303745 0.000000
vt 0.952588 -4.303745 0.000000
vn -0.096593 0.025882 0.000000
vn -0.096593 0.025882 0.000000
vn -0.096593 0.025882 0.000000
vn -0.096593 0.025882 0.000000
vn 0.025882 0.096593 0.000000
vn 0.025882 0.096593 0.000000
vn 0.025882 0.096593 0.000000
vn 0.025882 0.096593 0.000000
vn 0.096593 -0.025882 0.000000
vn 0.096593 -0.025882 0.000000
vn 0.096593 -0.025882 0.000000
vn 0.096593 -0.025882 0.000000
vn -0.025882 -0.096593 0.000000
vn -0.025882 -0.096593 0.000000
vn -0.025882 -0.096593 0.000000
vn -0.025882 -0.096593 0.000000
vn -0.100000 0.000000 0.000000
vn -0.100000 0.000000 0.000000
vn -0.100000 0.000000 0.000000
vn -0.100000 0.000000 0.000000
vn 0.000000 0.100000 0.000000
vn 0.000000 0.100000 0.000000
vn 0.000000 0.100000 0.000000
vn 0.000000 0.100000 0.000000
vn 0.100000 0.000000 0.000000
vn 0.100000 0.000000 0.000000
vn 0.100000 0.000000 0.000000
vn 0.100000 0.000000 0.000000
vn 0.000000 -0.100000 0.000000
vn 0.000000 -0.100000 0.000000
vn 0.000000 -0.100000 0.000000
vn 0.000000 -0.100000 0.000000
vn 0.050000 0.086603 0.000000
vn 0.050000 0.086603 0.000000
vn 0.050000 0.086603 0.000000
vn 0.050000 0.086603 0.000000
vn 0.086603 -0.050000 0.000000
vn 0.086603 -0.050000 0.000000
vn 0.086603 -0.050000 0.000000
vn 0.086603 -0.050000 0.000000
vn -0.050000 -0.086603 0.000000
vn -0.050000 -0.086603 0.000000
vn -0.050000 -0.086603 0.000000
vn -0.050000 -0.086603 0.000000
vn -0.086603 0.050000 0.000000
vn -0.086603 0.050000 0.000000
vn -0.086603 0.050000 0.000000
vn -0.086603 0.050000 0.000000
vn 0.000000 -0.100000 0.000000
vn 0.000000 -0.100000 0.000000
vn 0.000000 -0.100000 0.000000
vn 0.000000 -0.100000 0.000000
vn -0.100000 0.000000 0.000000
vn -0.100000 0.000000 0.000000
vn -0.100000 0.000000 0.000000
vn -0.100000 0.000000 0.000000
vn 0.000000 0.100000 0.000000
vn 0.000000 0.100000 0.000000
vn 0.000000 0.100000 0.000000
vn 0.000000 0.100000 0.000000
vn 0.100000 0.000000 0.000000
vn 0.100000 0.000000 0.000000
vn 0.100000 0.000000 0.000000
vn 0.100000 0.000000 0.000000
vn 0.025882 0.096593 0.000000
vn 0.025882 0.096593 0.000000
vn 0.025882 0.096593 0.000000
vn 0.025882 0.096593 0.000000
vn 0.000000 0.100000 0.000000
vn 0.000000 0.100000 0.000000
vn 0.000000 0.100000 0.000000
vn 0.000000 0.100000 0.000000
vn -0.100000 0.000000 0.000000
vn -0.100000 0.000000 0.000000
vn -0.100000 0.000000 0.000000
vn -0.100000 0.000000 0.000000
vn 0.000008 -0.100000 0.000000
vn 0.000008 -0.100000 0.000000
vn 0.000008 -0.100000 0.000000
vn 0.000008 -0.100000 0.000000
vn -0.025889 -0.096591 0.000000
vn -0.025889 -0.096591 0.000000
vn -0.025889 -0.096591 0.000000
vn -0.025889 -0.096591 0.000000
vn -0.050007 -0.086599 0.000000
vn -0.050007 -0.086599 0.000000
vn -0.050007 -0.086599 0.000000
vn -0.050007 -0.086599 0.000000
vn 0.086599 -0.050007 0.000000
vn 0.086599 -0.050007 0.000000
vn 0.073300 -0.068023 0.000000
vn 0.073300 -0.068023 0.000000
vn 0.056326 -0.082628 0.000000
vn 0.056326 -0.082628 0.000000
vn 0.036527 -0.093090 0.000000
vn 0.036527 -0.093090 0.000000
vn 0.014897 -0.098884 0.000000
vn 0.014897 -0.098884 0.000000
vn -0.007481 -0.099720 0.000000
vn -0.007481 -0.099720 0.000000
vn -0.029483 -0.095555 0.000000
vn -0.029483 -0.095555 0.000000
vn 0.086599 -0.050007 0.000000
vn 0.086599 -0.050007 0.000000
vn 0.050007 0.086599 0.000000
vn 0.050007 0.086599 0.000000
vn 0.068023 0.073300 0.000000
vn 0.068023 0.073300 0.000000
vn 0.082628 0.056326 0.000000
vn 0.082628 0.056326 0.000000
vn 0.093090 0.036527 0.000000
vn 0.093090 0.036527 0.000000
vn 0.098884 0.014897 0.000000
vn 0.098884 0.014897 0.000000
vn 0.099720 -0.007481 0.000000
vn 0.099720 -0.007481 0.000000
vn 0.095555 -0.029483 0.000000
vn 0.095555 -0.029483 0.000000
vn 0.050007 0.086599 0.000000
vn 0.050007 0.086599 0.000000
vn 0.000000 0.000000 0.100000
vn 0.000000 0.000000 0.100000
vn 0.000000 0.000000 0.100000
vn 0.000000 0.000000 0.100000
vn 0.000000 0.000000 0.100000
vn 0.000000 0.000000 0.100000
vn 0.000000 0.000000 0.100000
vn 0.000000 0.000000 0.100000
vn 0.000000 0.000000 0.100000
vn 0.000000 0.000000 0.100000
vn 0.000000 0.000000 0.100000
vn 0.000000 0.000000 0.100000
vn 0.000000 0.000000 0.100000
vn 0.000000 0.000000 0.100000
vn 0.000000 0.000000 0.100000
vn 0.000000 0.000000 0.100000
vn 0.000000 0.000000 0.100000
vn 0.000000 0.000000 0.100000
vn 0.000000 0.000000 0.100000
vn 0.000000 0.000000 0.100000
vn 0.000000 0.000000 0.100000
vn 0.000000 0.000000 0.100000
vn 0.000000 0.000000 0.100000
vn 0.000000 0.000000 0.100000
vn 0.000000 0.000000 0.100000
vn 0.000000 0.000000 0.100000
vn 0.000000 0.000000 0.100000
vn 0.000000 0.000000 0.100000
vn 0.000000 0.000000 0.100000
vn 0.000000 0.000000 0.100000
vn 0.000000 0.000000 0.100000
vn 0.000000 0.000000 0.100000
vn 0.000000 0.000000 0.100000
vn 0.000000 0.000000 0.100000
vn 0.000000 0.000000 0.100000
vn 0.000000 0.000000 0.100000
vn 0.000000 0.000000 0.100000
vn 0.000000 0.000000 0.100000
vn 0.000000 0.000000 -0.100000
vn 0.000000 0.000000 -0.100000
vn 0.000000 0.000000 -0.100000
vn 0.000000 0.000000 -0.100000
vn 0.000000 0.000000 -0.100000
vn 0.000000 0.000000 -0.100000
vn 0.000000 0.000000 -0.100000
vn 0.000000 0.000000 -0.100000
vn 0.000000 0.000000 -0.100000
vn 0.000000 0.000000 -0.100000
vn 0.000000 0.000000 -0.100000
vn 0.000000 0.000000 -0.100000
vn 0.000000 0.000000 -0.100000
vn 0.000000 0.000000 -0.100000
vn 0.000000 0.000000 -0.100000
vn 0.000000 0.000000 -0.100000
vn 0.000000 0.000000 -0.100000
vn 0.000000 0.000000 -0.100000
vn 0.000000 0.000000 -0.100000
vn 0.000000 0.000000 -0.100000
vn 0.000000 0.000000 -0.100000
vn 0.000000 0.000000 -0.100000
vn 0.000000 0.000000 -0.100000
vn 0.000000 0.000000 -0.100000
vn 0.000000 0.000000 -0.100000
vn 0.000000 0.000000 -0.100000
vn 0.000000 0.000000 -0.100000
vn 0.000000 0.000000 -0.100000
vn 0.000000 0.000000 -0.100000
vn 0.000000 0.000000 -0.100000
vn 0.000000 0.000000 -0.100000
vn 0.000000 0.000000 -0.100000
vn 0.000000 0.000000 -0.100000
vn 0.000000 0.000000 -0.100000
vn 0.000000 0.000000 -0.100000
vn 0.000000 0.000000 -0.100000
vn 0.000000 0.000000 -0.100000
vn 0.000000 0.000000 -0.100000
usemtl 鋼_-_サテン
f 1/1/1 2/2/2 4/3/3
f 4/3/3 2/2/2 3/4/4
f 5/5/5 1/6/6 6/7/7
f 6/7/7 1/6/6 4/8/8
f 7/9/9 5/10/10 8/11/11
f 8/11/11 5/10/10 6/12/12
f 2/13/13 7/14/14 3/15/15
f 3/15/15 7/14/14 8/16/16
f 9/17/17 10/18/18 12/19/19
f 12/19/19 10/18/18 11/20/20
f 13/21/21 9/22/22 14/23/23
f 14/23/23 9/22/22 12/24/24
f 15/25/25 13/26/26 16/27/27
f 16/27/27 13/26/26 14/28/28
f 10/29/29 15/30/30 11/31/31
f 11/31/31 15/30/30 16/32/32
f 17/33/33 18/34/34 20/35/35
f 20/35/35 18/34/34 19/36/36
f 21/37/37 17/38/38 22/39/39
f 22/39/39 17/38/38 20/40/40
f 23/41/41 21/42/42 24/43/43
f 24/43/43 21/42/42 22/44/44
f 18/45/45 23/46/46 19/47/47
f 19/47/47 23/46/46 24/48/48
f 25/49/49 26/50/50 28/51/51
f 28/51/51 26/50/50 27/52/52
f 29/53/53 25/54/54 30/55/55
f 30/55/55 25/54/54 28/56/56
f 31/57/57 29/58/58 32/59/59
f 32/59/59 29/58/58 30/60/60
f 26/61/61 31/62/62 27/63/63
f 27/63/63 31/62/62 32/64/64
f 33/65/65 34/66/66 36/67/67
f 36/67/67 34/66/66 35/68/68
f 37/69/69 33/70/70 38/71/71
f 38/71/71 33/70/70 36/72/72
f 39/73/73 37/74/74 40/75/75
f 40/75/75 37/74/74 38/76/76
f 41/77/77 39/78/78 42/79/79
f 42/79/79 39/78/78 40/80/80
f 43/81/81 41/82/82 44/83/83
f 44/83/83 41/82/82 42/84/84
f 45/85/85 43/86/86 46/87/87
f 46/87/87 43/86/86 44/88/88
f 60/89/89 47/90/90 59/91/91
f 59/91/91 47/90/90 48/92/92
f 59/91/91 48/92/92 58/93/93
f 58/93/93 48/92/92 49/94/94
f 58/93/93 49/94/94 57/95/95
f 57/95/95 49/94/94 50/96/96
f 57/95/95 50/96/96 56/97/97
f 56/97/97 50/96/96 51/98/98
f 56/97/97 51/98/98 55/99/99
f 55/99/99 51/98/98 52/100/100
f 55/99/99 52/100/100 54/101/101
f 54/101/101 52/100/100 53/102/102
f 54/101/101 53/102/102 46/103/87
f 46/103/87 53/102/102 45/104/85
f 61/105/103 47/106/90 62/107/104
f 62/107/104 47/106/90 60/108/89
f 76/109/105 63/110/106 75/111/107
f 75/111/107 63/110/106 64/112/108
f 75/111/107 64/112/108 74/113/109
f 74/113/109 64/112/108 65/114/110
f 74/113/109 65/114/110 73/115/111
f 73/115/111 65/114/110 66/116/112
f 73/115/111 66/116/112 72/117/113
f 72/117/113 66/116/112 67/118/114
f 72/117/113 67/118/114 71/119/115
f 71/119/115 67/118/114 68/120/116
f 71/119/115 68/120/116 70/121/117
f 70/121/117 68/120/116 69/122/118
f 70/121/117 69/122/118 62/123/104
f 62/123/104 69/122/118 61/124/103
f 34/125/119 63/126/106 35/127/120
f 35/127/120 63/126/106 76/128/105
f 34/129/121 21/130/122 63/131/123
f 63/131/123 21/130/122 23/132/124
f 63/131/123 23/132/124 64/133/125
f 64/133/125 23/132/124 65/134/126
f 65/134/126 23/132/124 66/135/127
f 66/135/127 23/132/124 67/136/128
f 67/136/128 23/132/124 68/137/129
f 68/137/129 23/132/124 69/138/130
f 69/138/130 23/132/124 61/139/131
f 61/139/131 23/132/124 18/140/132
f 61/139/131 18/140/132 47/141/133
f 47/141/133 18/140/132 45/142/134
f 47/141/133 45/142/134 48/143/135
f 48/143/135 45/142/134 49/144/136
f 49/144/136 45/142/134 50/145/137
f 50/145/137 45/142/134 53/146/138
f 50/145/137 53/146/138 51/147/139
f 51/147/139 53/146/138 52/148/140
f 33/149/141 7/150/142 34/129/121
f 34/129/121 7/150/142 2/151/143
f 34/129/121 2/151/143 21/130/122
f 21/130/122 2/151/143 1/152/144
f 21/130/122 1/152/144 17/153/145
f 17/153/145 1/152/144 43/154/146
f 17/153/145 43/154/146 18/140/132
f 18/140/132 43/154/146 45/142/134
f 37/155/147 26/156/148 33/149/141
f 33/149/141 26/156/148 25/157/149
f 33/149/141 25/157/149 7/150/142
f 7/150/142 25/157/149 29/158/150
f 7/150/142 29/158/150 5/159/151
f 5/159/151 29/158/150 41/160/152
f 5/159/151 41/160/152 1/152/144
f 1/152/144 41/160/152 43/154/146
f 39/161/153 13/162/154 37/155/147
f 37/155/147 13/162/154 15/163/155
f 37/155/147 15/163/155 10/164/156
f 13/162/154 39/161/153 9/165/157
f 9/165/157 39/161/153 41/160/152
f 9/165/157 41/160/152 31/166/158
f 31/166/158 41/160/152 29/158/150
f 9/165/157 31/166/158 10/164/156
f 10/164/156 31/166/158 26/156/148
f 10/164/156 26/156/148 37/155/147
f 76/167/159 22/168/160 35/169/161
f 35/169/161 22/168/160 3/170/162
f 35/169/161 3/170/162 8/171/163
f 22/168/160 76/167/159 24/172/164
f 24/172/164 76/167/159 75/173/165
f 24/172/164 75/173/165 74/174/166
f 74/174/166 73/175/167 24/172/164
f 24/172/164 73/175/167 72/176/168
f 24/172/164 72/176/168 71/177/169
f 71/177/169 70/178/170 24/172/164
f 24/172/164 70/178/170 62/179/171
f 24/172/164 62/179/171 19/180/172
f 19/180/172 62/179/171 60/181/173
f 19/180/172 60/181/173 46/182/174
f 46/182/174 60/181/173 59/183/175
f 46/182/174 59/183/175 58/184/176
f 58/184/176 57/185/177 46/182/174
f 46/182/174 57/185/177 54/186/178
f 54/186/178 57/185/177 56/187/179
f 54/186/178 56/187/179 55/188/180
f 46/182/174 44/189/181 19/180/172
f 19/180/172 44/189/181 20/190/182
f 20/190/182 44/189/181 4/191/183
f 20/190/182 4/191/183 22/168/160
f 22/168/160 4/191/183 3/170/162
f 44/189/181 42/192/184 4/191/183
f 4/191/183 42/192/184 6/193/185
f 6/193/185 42/192/184 30/194/186
f 6/193/185 30/194/186 8/171/163
f 8/171/163 30/194/186 28/195/187
f 8/171/163 28/195/187 36/196/188
f 36/196/188 28/195/187 27/197/189
f 36/196/188 27/197/189 38/198/190
f 38/198/190 27/197/189 11/199/191
f 38/198/190 11/199/191 16/200/192
f 40/201/193 12/202/194 42/192/184
f 42/192/184 12/202/194 32/203/195
f 42/192/184 32/203/195 30/194/186
f 12/202/194 40/201/193 14/204/196
f 14/204/196 40/201/193 38/198/190
f 14/204/196 38/198/190 16/200/192
f 36/196/188 35/169/161 8/171/163
f 11/199/191 27/197/189 12/202/194
f 12/202/194 27/197/189 32/203/195
# 76 vertices
# 204 texture params
# 196 normals
# 164 facets

# 1 groups
