# WaveFront *.obj file (generated by Autodesk ATF)

mtllib right_choc_plate.mtl

g chocplate (1)

v 1016.243471 -1371.043602 -2.800000
v 1019.866937 -1384.566564 -2.800000
v 1019.866937 -1384.566564 -1.200000
v 1016.243471 -1371.043602 -1.200000
v 1002.720509 -1374.667069 -2.800000
v 1002.720509 -1374.667069 -1.200000
v 1006.343976 -1388.190030 -2.800000
v 1006.343976 -1388.190030 -1.200000
v 989.204932 -1397.267182 -2.800000
v 982.204932 -1385.142826 -2.800000
v 982.204932 -1385.142826 -1.200000
v 989.204932 -1397.267182 -1.200000
v 1001.329288 -1390.267182 -2.800000
v 1001.329288 -1390.267182 -1.200000
v 994.329288 -1378.142826 -2.800000
v 994.329288 -1378.142826 -1.200000
v 1004.758255 -1391.334214 -2.800000
v 1021.376494 -1386.880026 -2.800000
v 1021.376494 -1386.880026 -1.200000
v 1004.758255 -1391.334214 -1.200000
v 990.036883 -1399.835087 -2.800000
v 990.036883 -1399.835087 -1.200000
v 987.304777 -1399.103243 -2.800000
v 987.504760 -1399.388803 -2.800000
v 987.751292 -1399.635298 -2.800000
v 988.036883 -1399.835238 -2.800000
v 988.352854 -1399.982549 -2.800000
v 988.689604 -1400.072754 -2.800000
v 989.036903 -1400.103112 -2.800000
v 989.384197 -1400.072701 -2.800000
v 989.720934 -1399.982445 -2.800000
v 989.720934 -1399.982445 -1.200000
v 989.384197 -1400.072701 -1.200000
v 989.036903 -1400.103112 -1.200000
v 988.689604 -1400.072754 -1.200000
v 988.352854 -1399.982549 -1.200000
v 988.036883 -1399.835238 -1.200000
v 987.751292 -1399.635298 -1.200000
v 987.504760 -1399.388803 -1.200000
v 987.304777 -1399.103243 -1.200000
v 979.704502 -1385.941478 -2.800000
v 979.704502 -1385.941478 -1.200000
v 980.436346 -1383.209372 -2.800000
v 980.150786 -1383.409356 -2.800000
v 979.904291 -1383.655888 -2.800000
v 979.704350 -1383.941478 -2.800000
v 979.557040 -1384.257449 -2.800000
v 979.466835 -1384.594200 -2.800000
v 979.436477 -1384.941498 -2.800000
v 979.466888 -1385.288793 -2.800000
v 979.557143 -1385.625530 -2.800000
v 979.557143 -1385.625530 -1.200000
v 979.466888 -1385.288793 -1.200000
v 979.436477 -1384.941498 -1.200000
v 979.466835 -1384.594200 -1.200000
v 979.557040 -1384.257449 -1.200000
v 979.704350 -1383.941478 -1.200000
v 979.904291 -1383.655888 -1.200000
v 980.150786 -1383.409356 -1.200000
v 980.436346 -1383.209372 -1.200000
v 997.190211 -1373.534835 -2.800000
v 997.190211 -1373.534835 -1.200000
v 1022.858449 -1366.657051 -2.800000
v 1022.858449 -1366.657051 -1.200000
v 1022.858710 -1384.948185 -2.800000
v 1022.858710 -1384.948185 -1.200000
v 1021.684247 -1386.769885 -2.800000
v 1021.969950 -1386.611086 -2.800000
v 1022.225971 -1386.407870 -2.800000
v 1022.445471 -1386.165665 -2.800000
v 1022.622587 -1385.890941 -2.800000
v 1022.752589 -1385.591036 -2.800000
v 1022.832004 -1385.273961 -2.800000
v 1022.832004 -1385.273961 -1.200000
v 1022.752589 -1385.591036 -1.200000
v 1022.622587 -1385.890941 -1.200000
v 1022.445471 -1386.165665 -1.200000
v 1022.225971 -1386.407870 -1.200000
v 1021.969950 -1386.611086 -1.200000
v 1021.684247 -1386.769885 -1.200000
vt 0.000000 0.000000 0.000000
vt 1.400000 0.000000 0.000000
vt 0.000000 0.160000 0.000000
vt 1.400000 0.160000 0.000000
vt 0.000000 0.000000 0.000000
vt 1.400000 0.000000 0.000000
vt 0.000000 0.160000 0.000000
vt 1.400000 0.160000 0.000000
vt 0.000000 0.000000 0.000000
vt 1.400000 0.000000 0.000000
vt 0.000000 0.160000 0.000000
vt 1.400000 0.160000 0.000000
vt 0.000000 0.000000 0.000000
vt 1.400000 0.000000 0.000000
vt 0.000000 0.160000 0.000000
vt 1.400000 0.160000 0.000000
vt 0.000000 0.000000 0.000000
vt 1.400000 0.000000 0.000000
vt 0.000000 0.160000 0.000000
vt 1.400000 0.160000 0.000000
vt 0.000000 0.000000 0.000000
vt 1.400000 0.000000 0.000000
vt 0.000000 0.160000 0.000000
vt 1.400000 0.160000 0.000000
vt 0.000000 0.000000 0.000000
vt 1.400000 0.000000 0.000000
vt 0.000000 0.160000 0.000000
vt 1.400000 0.160000 0.000000
vt 0.000000 0.000000 0.000000
vt 1.400000 0.000000 0.000000
vt 0.000000 0.160000 0.000000
vt 1.400000 0.160000 0.000000
vt 0.000000 0.000000 0.000000
vt 1.720482 0.000000 0.000000
vt 0.000000 0.160000 0.000000
vt 1.720482 0.160000 0.000000
vt 0.000000 0.000000 0.000000
vt 1.699952 0.000000 0.000000
vt 0.000000 0.160000 0.000000
vt 1.699952 0.160000 0.000000
vt -0.160000 0.000000 0.000000
vt -0.000000 0.000000 0.000000
vt -0.160000 0.034907 0.000000
vt -0.000000 0.034907 0.000000
vt -0.160000 0.069813 0.000000
vt -0.000000 0.069813 0.000000
vt -0.160000 0.104720 0.000000
vt -0.000000 0.104720 0.000000
vt -0.160000 0.139626 0.000000
vt -0.000000 0.139626 0.000000
vt -0.160000 0.174533 0.000000
vt -0.000000 0.174533 0.000000
vt -0.160000 0.209440 0.000000
vt -0.000000 0.209440 0.000000
vt -0.160000 0.244346 0.000000
vt -0.000000 0.244346 0.000000
vt -0.160000 0.279253 0.000000
vt -0.000000 0.279253 0.000000
vt -0.160000 0.314159 0.000000
vt -0.000000 0.314159 0.000000
vt 0.000000 0.000000 0.000000
vt 1.519856 0.000000 0.000000
vt 0.000000 0.160000 0.000000
vt 1.519856 0.160000 0.000000
vt -0.160000 0.000000 0.000000
vt -0.000000 0.000000 0.000000
vt -0.160000 0.034907 0.000000
vt -0.000000 0.034907 0.000000
vt -0.160000 0.069813 0.000000
vt -0.000000 0.069813 0.000000
vt -0.160000 0.104720 0.000000
vt -0.000000 0.104720 0.000000
vt -0.160000 0.139626 0.000000
vt -0.000000 0.139626 0.000000
vt -0.160000 0.174533 0.000000
vt -0.000000 0.174533 0.000000
vt -0.160000 0.209440 0.000000
vt -0.000000 0.209440 0.000000
vt -0.160000 0.244346 0.000000
vt -0.000000 0.244346 0.000000
vt -0.160000 0.279253 0.000000
vt -0.000000 0.279253 0.000000
vt -0.160000 0.314159 0.000000
vt -0.000000 0.314159 0.000000
vt -0.000000 0.000000 0.000000
vt 1.934654 0.000000 0.000000
vt -0.000000 0.160000 0.000000
vt 1.934654 0.160000 0.000000
vt 0.000000 0.000000 0.000000
vt 2.657372 0.000000 0.000000
vt 0.000000 0.160000 0.000000
vt 2.657372 0.160000 0.000000
vt 0.000000 0.000000 0.000000
vt 1.829113 0.000000 0.000000
vt 0.000000 0.160000 0.000000
vt 1.829113 0.160000 0.000000
vt -0.160000 -0.000000 0.000000
vt -0.000000 -0.000000 0.000000
vt -0.160000 0.032723 0.000000
vt -0.000000 0.032723 0.000000
vt -0.000000 0.065447 0.000000
vt -0.160000 0.065447 0.000000
vt -0.000000 0.098170 0.000000
vt -0.160000 0.098170 0.000000
vt -0.000000 0.130894 0.000000
vt -0.160000 0.130894 0.000000
vt -0.000000 0.163617 0.000000
vt -0.160000 0.163617 0.000000
vt -0.000000 0.196340 0.000000
vt -0.160000 0.196340 0.000000
vt -0.000000 0.229064 0.000000
vt -0.160000 0.229064 0.000000
vt -0.160000 0.261787 0.000000
vt -0.000000 0.261787 0.000000
vt -2.708826 -4.594925 0.000000
vt -2.890557 -4.374593 0.000000
vt -2.739602 -4.605939 0.000000
vt -4.242853 -4.736940 0.000000
vt -4.401426 -5.051358 0.000000
vt -4.744322 -4.944655 0.000000
vt -5.873563 -5.901445 0.000000
vt -5.956758 -5.644655 0.000000
vt -6.102122 -5.881466 0.000000
vt -6.126775 -5.856817 0.000000
vt -6.146773 -5.828261 0.000000
vt -6.906801 -4.512084 0.000000
vt -6.656758 -4.432219 0.000000
vt -6.921537 -4.480490 0.000000
vt -6.930562 -4.446816 0.000000
vt -6.933603 -4.412086 0.000000
vt -6.930567 -4.377357 0.000000
vt -6.921547 -4.343681 0.000000
vt -6.906816 -4.312084 0.000000
vt -6.886822 -4.283525 0.000000
vt -6.862172 -4.258872 0.000000
vt -6.833616 -4.238874 0.000000
vt -5.444322 -3.732219 0.000000
vt -5.158230 -3.271420 0.000000
vt -4.605200 -3.384643 0.000000
vt -3.252904 -3.022297 0.000000
vt -2.680256 -4.579045 0.000000
vt -2.654654 -4.558724 0.000000
vt -2.632704 -4.534503 0.000000
vt -2.614992 -4.507031 0.000000
vt -2.601992 -4.477040 0.000000
vt -2.594051 -4.445333 0.000000
vt -2.591380 -4.412755 0.000000
vt -2.591406 -2.583642 0.000000
vt -6.073563 -5.901460 0.000000
vt -5.905158 -5.916181 0.000000
vt -6.041966 -5.916191 0.000000
vt -5.938831 -5.925207 0.000000
vt -6.008291 -5.925212 0.000000
vt -5.973561 -5.928248 0.000000
vt 2.594051 -4.445333 0.000000
vt 2.890557 -4.374593 0.000000
vt 2.591380 -4.412755 0.000000
vt 3.252904 -3.022297 0.000000
vt 2.591406 -2.583642 0.000000
vt 5.158230 -3.271420 0.000000
vt 4.605200 -3.384643 0.000000
vt 5.444322 -3.732219 0.000000
vt 4.242853 -4.736940 0.000000
vt 4.744322 -4.944655 0.000000
vt 4.401426 -5.051358 0.000000
vt 5.873563 -5.901445 0.000000
vt 2.601992 -4.477040 0.000000
vt 2.614992 -4.507031 0.000000
vt 2.632704 -4.534503 0.000000
vt 2.654654 -4.558724 0.000000
vt 2.680256 -4.579045 0.000000
vt 2.708826 -4.594925 0.000000
vt 2.739602 -4.605939 0.000000
vt 5.905158 -5.916181 0.000000
vt 6.073563 -5.901460 0.000000
vt 6.102122 -5.881466 0.000000
vt 5.956758 -5.644655 0.000000
vt 6.126775 -5.856817 0.000000
vt 6.146773 -5.828261 0.000000
vt 6.041966 -5.916191 0.000000
vt 5.938831 -5.925207 0.000000
vt 6.008291 -5.925212 0.000000
vt 5.973561 -5.928248 0.000000
vt 6.906801 -4.512084 0.000000
vt 6.656758 -4.432219 0.000000
vt 6.921537 -4.480490 0.000000
vt 6.930562 -4.446816 0.000000
vt 6.933603 -4.412086 0.000000
vt 6.930567 -4.377357 0.000000
vt 6.921547 -4.343681 0.000000
vt 6.906816 -4.312084 0.000000
vt 6.886822 -4.283525 0.000000
vt 6.862172 -4.258872 0.000000
vt 6.833616 -4.238874 0.000000
vn -0.096593 -0.025882 0.000000
vn -0.096593 -0.025882 0.000000
vn -0.096593 -0.025882 0.000000
vn -0.096593 -0.025882 0.000000
vn 0.025882 -0.096593 0.000000
vn 0.025882 -0.096593 0.000000
vn 0.025882 -0.096593 0.000000
vn 0.025882 -0.096593 0.000000
vn 0.096593 0.025882 0.000000
vn 0.096593 0.025882 0.000000
vn 0.096593 0.025882 0.000000
vn 0.096593 0.025882 0.000000
vn -0.025882 0.096593 0.000000
vn -0.025882 0.096593 0.000000
vn -0.025882 0.096593 0.000000
vn -0.025882 0.096593 0.000000
vn 0.086603 0.050000 0.000000
vn 0.086603 0.050000 0.000000
vn 0.086603 0.050000 0.000000
vn 0.086603 0.050000 0.000000
vn -0.050000 0.086603 0.000000
vn -0.050000 0.086603 0.000000
vn -0.050000 0.086603 0.000000
vn -0.050000 0.086603 0.000000
vn -0.086603 -0.050000 0.000000
vn -0.086603 -0.050000 0.000000
vn -0.086603 -0.050000 0.000000
vn -0.086603 -0.050000 0.000000
vn 0.050000 -0.086603 0.000000
vn 0.050000 -0.086603 0.000000
vn 0.050000 -0.086603 0.000000
vn 0.050000 -0.086603 0.000000
vn 0.025889 -0.096591 0.000000
vn 0.025889 -0.096591 0.000000
vn 0.025889 -0.096591 0.000000
vn 0.025889 -0.096591 0.000000
vn 0.050007 -0.086599 0.000000
vn 0.050007 -0.086599 0.000000
vn 0.050007 -0.086599 0.000000
vn 0.050007 -0.086599 0.000000
vn -0.086599 -0.050007 0.000000
vn -0.086599 -0.050007 0.000000
vn -0.076600 -0.064285 0.000000
vn -0.076600 -0.064285 0.000000
vn -0.064273 -0.076609 0.000000
vn -0.064273 -0.076609 0.000000
vn -0.049993 -0.086606 0.000000
vn -0.049993 -0.086606 0.000000
vn -0.034195 -0.093972 0.000000
vn -0.034195 -0.093972 0.000000
vn -0.017357 -0.098482 0.000000
vn -0.017357 -0.098482 0.000000
vn 0.000008 -0.100000 0.000000
vn 0.000008 -0.100000 0.000000
vn 0.017372 -0.098479 0.000000
vn 0.017372 -0.098479 0.000000
vn 0.034209 -0.093967 0.000000
vn 0.034209 -0.093967 0.000000
vn -0.086599 -0.050007 0.000000
vn -0.086599 -0.050007 0.000000
vn -0.050007 0.086599 -0.000000
vn -0.050007 0.086599 -0.000000
vn -0.064285 0.076600 -0.000000
vn -0.064285 0.076600 -0.000000
vn -0.076609 0.064273 -0.000000
vn -0.076609 0.064273 -0.000000
vn -0.086606 0.049993 -0.000000
vn -0.086606 0.049993 -0.000000
vn -0.093972 0.034195 -0.000000
vn -0.093972 0.034195 -0.000000
vn -0.098482 0.017357 -0.000000
vn -0.098482 0.017357 -0.000000
vn -0.100000 -0.000008 0.000000
vn -0.100000 -0.000008 0.000000
vn -0.098479 -0.017372 0.000000
vn -0.098479 -0.017372 0.000000
vn -0.093967 -0.034209 0.000000
vn -0.093967 -0.034209 0.000000
vn -0.050007 0.086599 0.000000
vn -0.050007 0.086599 0.000000
vn -0.050007 0.086599 0.000000
vn -0.050007 0.086599 0.000000
vn -0.025882 0.096593 0.000000
vn -0.025882 0.096593 0.000000
vn -0.025882 0.096593 0.000000
vn -0.025882 0.096593 0.000000
vn 0.100000 0.000001 0.000000
vn 0.100000 0.000001 0.000000
vn 0.100000 0.000001 0.000000
vn 0.100000 0.000001 0.000000
vn 0.041277 -0.091084 0.000000
vn 0.041277 -0.091084 0.000000
vn 0.055562 -0.083144 0.000000
vn 0.055562 -0.083144 0.000000
vn 0.068363 -0.072983 0.000000
vn 0.068363 -0.072983 0.000000
vn 0.079338 -0.060873 0.000000
vn 0.079338 -0.060873 0.000000
vn 0.088194 -0.047136 0.000000
vn 0.088194 -0.047136 0.000000
vn 0.094694 -0.032141 0.000000
vn 0.094694 -0.032141 0.000000
vn 0.098665 -0.016287 0.000000
vn 0.098665 -0.016287 0.000000
vn 0.000000 0.000000 0.100000
vn 0.000000 0.000000 0.100000
vn 0.000000 0.000000 0.100000
vn 0.000000 0.000000 0.100000
vn 0.000000 0.000000 0.100000
vn 0.000000 0.000000 0.100000
vn 0.000000 0.000000 0.100000
vn 0.000000 0.000000 0.100000
vn 0.000000 0.000000 0.100000
vn 0.000000 0.000000 0.100000
vn 0.000000 0.000000 0.100000
vn 0.000000 0.000000 0.100000
vn 0.000000 0.000000 0.100000
vn 0.000000 0.000000 0.100000
vn 0.000000 0.000000 0.100000
vn 0.000000 0.000000 0.100000
vn 0.000000 0.000000 0.100000
vn 0.000000 0.000000 0.100000
vn 0.000000 0.000000 0.100000
vn 0.000000 0.000000 0.100000
vn 0.000000 0.000000 0.100000
vn 0.000000 0.000000 0.100000
vn 0.000000 0.000000 0.100000
vn 0.000000 0.000000 0.100000
vn 0.000000 0.000000 0.100000
vn 0.000000 0.000000 0.100000
vn 0.000000 0.000000 0.100000
vn 0.000000 0.000000 0.100000
vn 0.000000 0.000000 0.100000
vn 0.000000 0.000000 0.100000
vn 0.000000 0.000000 0.100000
vn 0.000000 0.000000 0.100000
vn 0.000000 0.000000 0.100000
vn 0.000000 0.000000 0.100000
vn 0.000000 0.000000 0.100000
vn 0.000000 0.000000 0.100000
vn 0.000000 0.000000 0.100000
vn 0.000000 0.000000 0.100000
vn 0.000000 0.000000 0.100000
vn 0.000000 0.000000 0.100000
vn 0.000000 0.000000 -0.100000
vn 0.000000 0.000000 -0.100000
vn 0.000000 0.000000 -0.100000
vn 0.000000 0.000000 -0.100000
vn 0.000000 0.000000 -0.100000
vn 0.000000 0.000000 -0.100000
vn 0.000000 0.000000 -0.100000
vn 0.000000 0.000000 -0.100000
vn 0.000000 0.000000 -0.100000
vn 0.000000 0.000000 -0.100000
vn 0.000000 0.000000 -0.100000
vn 0.000000 0.000000 -0.100000
vn 0.000000 0.000000 -0.100000
vn 0.000000 0.000000 -0.100000
vn 0.000000 0.000000 -0.100000
vn 0.000000 0.000000 -0.100000
vn 0.000000 0.000000 -0.100000
vn 0.000000 0.000000 -0.100000
vn 0.000000 0.000000 -0.100000
vn 0.000000 0.000000 -0.100000
vn 0.000000 0.000000 -0.100000
vn 0.000000 0.000000 -0.100000
vn 0.000000 0.000000 -0.100000
vn 0.000000 0.000000 -0.100000
vn 0.000000 0.000000 -0.100000
vn 0.000000 0.000000 -0.100000
vn 0.000000 0.000000 -0.100000
vn 0.000000 0.000000 -0.100000
vn 0.000000 0.000000 -0.100000
vn 0.000000 0.000000 -0.100000
vn 0.000000 0.000000 -0.100000
vn 0.000000 0.000000 -0.100000
vn 0.000000 0.000000 -0.100000
vn 0.000000 0.000000 -0.100000
vn 0.000000 0.000000 -0.100000
vn 0.000000 0.000000 -0.100000
vn 0.000000 0.000000 -0.100000
vn 0.000000 0.000000 -0.100000
vn 0.000000 0.000000 -0.100000
vn 0.000000 0.000000 -0.100000
usemtl 鋼_-_サテン
f 1/1/1 2/2/2 4/3/3
f 4/3/3 2/2/2 3/4/4
f 5/5/5 1/6/6 6/7/7
f 6/7/7 1/6/6 4/8/8
f 7/9/9 5/10/10 8/11/11
f 8/11/11 5/10/10 6/12/12
f 2/13/13 7/14/14 3/15/15
f 3/15/15 7/14/14 8/16/16
f 9/17/17 10/18/18 12/19/19
f 12/19/19 10/18/18 11/20/20
f 13/21/21 9/22/22 14/23/23
f 14/23/23 9/22/22 12/24/24
f 15/25/25 13/26/26 16/27/27
f 16/27/27 13/26/26 14/28/28
f 10/29/29 15/30/30 11/31/31
f 11/31/31 15/30/30 16/32/32
f 17/33/33 18/34/34 20/35/35
f 20/35/35 18/34/34 19/36/36
f 21/37/37 17/38/38 22/39/39
f 22/39/39 17/38/38 20/40/40
f 40/41/41 23/42/42 39/43/43
f 39/43/43 23/42/42 24/44/44
f 39/43/43 24/44/44 38/45/45
f 38/45/45 24/44/44 25/46/46
f 38/45/45 25/46/46 37/47/47
f 37/47/47 25/46/46 26/48/48
f 37/47/47 26/48/48 36/49/49
f 36/49/49 26/48/48 27/50/50
f 36/49/49 27/50/50 35/51/51
f 35/51/51 27/50/50 28/52/52
f 35/51/51 28/52/52 34/53/53
f 34/53/53 28/52/52 29/54/54
f 34/53/53 29/54/54 33/55/55
f 33/55/55 29/54/54 30/56/56
f 33/55/55 30/56/56 32/57/57
f 32/57/57 30/56/56 31/58/58
f 32/57/57 31/58/58 22/59/39
f 22/59/39 31/58/58 21/60/37
f 41/61/59 23/62/42 42/63/60
f 42/63/60 23/62/42 40/64/41
f 60/65/61 43/66/62 59/67/63
f 59/67/63 43/66/62 44/68/64
f 59/67/63 44/68/64 58/69/65
f 58/69/65 44/68/64 45/70/66
f 58/69/65 45/70/66 57/71/67
f 57/71/67 45/70/66 46/72/68
f 57/71/67 46/72/68 56/73/69
f 56/73/69 46/72/68 47/74/70
f 56/73/69 47/74/70 55/75/71
f 55/75/71 47/74/70 48/76/72
f 55/75/71 48/76/72 54/77/73
f 54/77/73 48/76/72 49/78/74
f 54/77/73 49/78/74 53/79/75
f 53/79/75 49/78/74 50/80/76
f 53/79/75 50/80/76 52/81/77
f 52/81/77 50/80/76 51/82/78
f 52/81/77 51/82/78 42/83/60
f 42/83/60 51/82/78 41/84/59
f 61/85/79 43/86/80 62/87/81
f 62/87/81 43/86/80 60/88/82
f 63/89/83 61/90/84 64/91/85
f 64/91/85 61/90/84 62/92/86
f 65/93/87 63/94/88 66/95/89
f 66/95/89 63/94/88 64/96/90
f 19/97/36 18/98/34 80/99/91
f 80/99/91 18/98/34 67/100/92
f 80/99/91 67/100/92 68/101/93
f 80/99/91 68/101/93 79/102/94
f 79/102/94 68/101/93 69/103/95
f 79/102/94 69/103/95 78/104/96
f 78/104/96 69/103/95 70/105/97
f 78/104/96 70/105/97 77/106/98
f 77/106/98 70/105/97 71/107/99
f 77/106/98 71/107/99 76/108/100
f 76/108/100 71/107/99 72/109/101
f 76/108/100 72/109/101 75/110/102
f 75/110/102 72/109/101 73/111/103
f 75/110/102 73/111/103 74/112/104
f 74/112/104 73/111/103 66/113/89
f 66/113/89 73/111/103 65/114/87
f 80/115/105 3/116/106 19/117/107
f 19/117/107 3/116/106 8/118/108
f 19/117/107 8/118/108 20/119/109
f 20/119/109 8/118/108 14/120/110
f 20/119/109 14/120/110 22/121/111
f 22/121/111 14/120/110 12/122/112
f 22/121/111 12/122/112 38/123/113
f 38/123/113 12/122/112 39/124/114
f 39/124/114 12/122/112 40/125/115
f 40/125/115 12/122/112 42/126/116
f 42/126/116 12/122/112 11/127/117
f 42/126/116 11/127/117 52/128/118
f 52/128/118 11/127/117 53/129/119
f 53/129/119 11/127/117 54/130/120
f 54/130/120 11/127/117 55/131/121
f 55/131/121 11/127/117 56/132/122
f 56/132/122 11/127/117 57/133/123
f 57/133/123 11/127/117 58/134/124
f 58/134/124 11/127/117 59/135/125
f 59/135/125 11/127/117 60/136/126
f 60/136/126 11/127/117 16/137/127
f 60/136/126 16/137/127 62/138/128
f 62/138/128 16/137/127 6/139/129
f 62/138/128 6/139/129 4/140/130
f 80/115/105 79/141/131 3/116/106
f 3/116/106 79/141/131 78/142/132
f 3/116/106 78/142/132 77/143/133
f 77/143/133 76/144/134 3/116/106
f 3/116/106 76/144/134 75/145/135
f 3/116/106 75/145/135 74/146/136
f 74/146/136 66/147/137 3/116/106
f 3/116/106 66/147/137 4/140/130
f 4/140/130 66/147/137 64/148/138
f 4/140/130 64/148/138 62/138/128
f 38/123/113 37/149/139 22/121/111
f 22/121/111 37/149/139 32/150/140
f 32/150/140 37/149/139 36/151/141
f 32/150/140 36/151/141 33/152/142
f 33/152/142 36/151/141 35/153/143
f 33/152/142 35/153/143 34/154/144
f 6/139/129 16/137/127 8/118/108
f 8/118/108 16/137/127 14/120/110
f 73/155/145 2/156/146 65/157/147
f 65/157/147 2/156/146 1/158/148
f 65/157/147 1/158/148 63/159/149
f 63/159/149 1/158/148 61/160/150
f 61/160/150 1/158/148 5/161/151
f 61/160/150 5/161/151 15/162/152
f 15/162/152 5/161/151 7/163/153
f 15/162/152 7/163/153 13/164/154
f 13/164/154 7/163/153 17/165/155
f 13/164/154 17/165/155 21/166/156
f 73/155/145 72/167/157 2/156/146
f 2/156/146 72/167/157 71/168/158
f 2/156/146 71/168/158 70/169/159
f 70/169/159 69/170/160 2/156/146
f 2/156/146 69/170/160 68/171/161
f 2/156/146 68/171/161 67/172/162
f 67/172/162 18/173/163 2/156/146
f 2/156/146 18/173/163 7/163/153
f 7/163/153 18/173/163 17/165/155
f 31/174/164 26/175/165 21/166/156
f 21/166/156 26/175/165 25/176/166
f 21/166/156 25/176/166 9/177/167
f 9/177/167 25/176/166 24/178/168
f 9/177/167 24/178/168 23/179/169
f 26/175/165 31/174/164 27/180/170
f 27/180/170 31/174/164 30/181/171
f 27/180/170 30/181/171 28/182/172
f 28/182/172 30/181/171 29/183/173
f 23/179/169 41/184/174 9/177/167
f 9/177/167 41/184/174 10/185/175
f 10/185/175 41/184/174 51/186/176
f 10/185/175 51/186/176 50/187/177
f 50/187/177 49/188/178 10/185/175
f 10/185/175 49/188/178 48/189/179
f 10/185/175 48/189/179 47/190/180
f 47/190/180 46/191/181 10/185/175
f 10/185/175 46/191/181 45/192/182
f 10/185/175 45/192/182 44/193/183
f 44/193/183 43/194/184 10/185/175
f 10/185/175 43/194/184 15/162/152
f 15/162/152 43/194/184 61/160/150
f 9/177/167 13/164/154 21/166/156
# 80 vertices
# 194 texture params
# 184 normals
# 164 facets

# 1 groups
